<svg xmlns="http://www.w3.org/2000/svg" version="1.1" xmlns:xlink="http://www.w3.org/1999/xlink" xmlns:svgjs="http://svgjs.dev/svgjs" width="1500" height="1687" viewBox="0 0 1500 1687"><g transform="matrix(1,0,0,1,2.2737367544323206e-13,0)"><svg viewBox="0 0 320 360" data-background-color="#000000" preserveAspectRatio="xMidYMid meet" height="1687" width="1500" xmlns="http://www.w3.org/2000/svg" xmlns:xlink="http://www.w3.org/1999/xlink"><g id="tight-bounds" transform="matrix(1,0,0,1,0,0)"><svg viewBox="0 0 320 360" height="360" width="320"><rect width="320.0000000000001" height="360" fill="url(#b0eb8c14-f755-46bb-8077-712949328b39)" mask="url(#70300474-cd82-44bf-b3cc-ae21b7c1912d)" data-fill-palette-color="tertiary"></rect><g><svg></svg></g><g><svg viewBox="0 0 320 360" height="360" width="320"><g><path d="M20.961 227.22l3.726 4.658-1.863-6.056c-0.466-2.795-3.726 0.466-1.863 1.398M25.153 224.425c1.397 2.329 2.795 4.658 2.795 6.987 0 3.261 2.795 4.658 5.123 5.589-3.261-3.726-5.124-13.974-7.918-12.576M204.017 26.929c7.918 0 15.371-0.932 23.756 0.931 20.495 5.124 37.729 15.371 49.374 29.811l32.606 52.169c1.397 13.042 4.192 27.482 3.726 43.319 3.261 0 2.795-4.658 6.521-5.59-3.726 9.316-5.59 20.961-6.521 34.469-2.329-7.453 0-18.632 0.466-24.687-3.261 5.124-5.124 1.397-5.124-0.932 0.466-3.726-1.397-3.261-2.795-4.658-5.124-4.658-8.384-9.782-12.11-17.7 2.329-6.055 2.795-14.905-4.658-19.563-2.329-1.397-5.124-3.726-6.521-7.453-1.863-5.124-5.124-11.179-4.193-19.097 0.466-2.329-6.987 5.124-11.179 1.863-18.166-12.576-36.332-27.016-58.224-39.127-11.645 0-20.029-4.192-24.221-9.316-3.726-4.658-0.932-10.713 4.658-11.179 3.261 0 6.987-0.932 9.782 0.932 0.466-1.863 2.329-4.192 4.657-4.192M157.904 16.215l0.932 0.466c4.658 0.932 6.987 7.453 12.11 5.124 0 3.261 0.466 6.521-0.466 8.85-1.397 3.726-5.59 3.726-8.85 3.726-31.208-1.863-49.374 11.179-68.471 22.358-5.124 3.261-10.713 5.59-14.906 9.782-20.029 18.632-41.921 35.866-47.045 70.335l-4.192 38.195c-0.466 4.192-5.124 8.384-4.192 13.508l3.26 22.824c-3.261-3.261-5.124 0.932-4.192 2.795 0.466 1.397 2.329 6.055 5.124 1.863 3.726 6.987 7.453 20.495 12.576 26.55 15.837 18.632 36.332 35.4 53.101 52.169 4.192-0.932 7.453-0.932 8.384-3.727 1.397 2.795-1.397 5.59-3.726 6.056 7.453 4.658 15.837 8.85 27.016 9.781 14.44 0.932 27.948 3.261 40.524 6.522 6.521-1.863 13.042-2.795 20.029-3.261 2.329 0 3.726-3.726 6.521-4.658l0.466-4.658c2.795 4.192 2.329-1.397 0.466-4.192 3.261 2.795 4.192 5.124 5.589 6.987 0-1.397 3.726-6.521 3.727-0.466l0.931-6.055c1.397-0.932 1.863 5.124 3.261 0.931 1.397-4.192 4.192-0.932 6.987-2.329-0.932 1.863-0.466 5.59 2.794 3.261l3.727-3.261c2.329 5.59 6.055 3.261 7.918 2.329 20.495-13.042 40.99-28.413 60.553-43.784l-0.466 6.055 2.329-7.453c2.329 2.329 4.192 0.466 5.124-0.931 2.795-4.658 6.521-9.316 12.577-13.508-7.453 20.029-16.303 35.866-27.482 48.908l-4.658 5.59c0 3.261-0.932 7.453-4.658 7.918-1.863 0.466-5.59-0.932-8.384 1.863-1.397 1.863 3.261 5.59-0.466 2.795-3.261-2.329-6.521 0-10.248 0.932-2.795 0.932 1.863 3.726 2.795 5.589 0.932 1.863 1.863 3.726 1.398 6.056l-5.124-5.59c-6.055 3.261-9.782 9.316-14.906 13.974-2.329 1.863-1.397 5.124-1.397 7.918-3.261 0-6.987-0.932-8.85 0.932-1.397 1.863-0.932 4.658-0.932 7.453-4.658-0.466-5.124-7.453-9.315-6.056-4.192 0.932-8.85 1.397-12.577 3.727 2.795 5.59-4.658 2.329-3.726 3.26-6.987-4.192-13.042-7.453-20.495-4.658-15.837-5.124-35.4-2.795-49.84-0.931 0-2.329 0.466-4.658-0.466-5.124-0.932 2.329-3.726 1.397-3.26 1.397-8.85-6.055-17.7-9.782-27.016-14.905-8.384 0.932-16.303-3.261-18.632-5.59-6.521-6.055-13.974-2.795-20.029-4.192-13.042-3.261-17.7-16.769-19.098-26.084-0.932-4.658-4.658-6.521-6.055-6.056-6.055-19.563-15.371-37.263-22.824-55.429-1.863-4.658-1.397-9.316-1.397-14.44 2.329 0.932 4.658 0.466 4.192-2.794-2.329-15.371-7.918-27.016-13.974-38.195 3.261-15.837 3.726-34.469 11.179-48.443 6.521-12.576 18.632-19.098 27.016-29.811 2.795-3.726 2.795-8.85 5.59-12.11 9.316-9.316 18.632-19.098 28.879-27.482 4.658-3.726 10.247 0 17.234-1.397 2.329-8.384 11.645-15.837 20.495-13.508 3.726 0.932 11.179-8.85 13.508-9.782 3.726-1.397 1.863 3.726 1.863 6.987 8.85-6.987 20.961-10.713 32.14-14.906" fill="url(#b0eb8c14-f755-46bb-8077-712949328b39)" fill-rule="nonzero" stroke="none" stroke-width="1" stroke-linecap="butt" stroke-linejoin="miter" stroke-miterlimit="10" stroke-dasharray="" stroke-dashoffset="0" font-family="none" font-weight="none" font-size="none" text-anchor="none" style="mix-blend-mode: normal" data-fill-palette-color="tertiary"></path></g><g transform="matrix(1,0,0,1,64,119.3103448275862)"><svg viewBox="0 0 192 121.37931034482759" height="121.37931034482759" width="192"><g><svg viewBox="0 0 192 121.37931034482759" height="121.37931034482759" width="192"><g><svg viewBox="0 0 192 121.37931034482759" height="121.37931034482759" width="192"><g id="textblocktransform"><svg viewBox="0 0 192 121.37931034482759" height="121.37931034482759" width="192" id="textblock"><g><svg viewBox="0 0 192 121.37931034482759" height="121.37931034482759" width="192"><g transform="matrix(1,0,0,1,0,0)"><svg width="192" viewBox="0.7 -32.35 52.199999999999996 33" height="121.37931034482759" data-palette-color="url(#803f2797-1a21-4fe5-8a9c-6fbc467fab7f)"></svg></g></svg></g></svg></g></svg></g></svg></g></svg></g></svg></g><defs></defs><mask id="eb0c3163-94a8-4a15-b859-9e114eb1765f"><g id="SvgjsG4248"><svg viewBox="0 0 320 360" height="360" width="320"><g><svg></svg></g><g><svg viewBox="0 0 320 360" height="360" width="320"><g><path d="M20.961 227.22l3.726 4.658-1.863-6.056c-0.466-2.795-3.726 0.466-1.863 1.398M25.153 224.425c1.397 2.329 2.795 4.658 2.795 6.987 0 3.261 2.795 4.658 5.123 5.589-3.261-3.726-5.124-13.974-7.918-12.576M204.017 26.929c7.918 0 15.371-0.932 23.756 0.931 20.495 5.124 37.729 15.371 49.374 29.811l32.606 52.169c1.397 13.042 4.192 27.482 3.726 43.319 3.261 0 2.795-4.658 6.521-5.59-3.726 9.316-5.59 20.961-6.521 34.469-2.329-7.453 0-18.632 0.466-24.687-3.261 5.124-5.124 1.397-5.124-0.932 0.466-3.726-1.397-3.261-2.795-4.658-5.124-4.658-8.384-9.782-12.11-17.7 2.329-6.055 2.795-14.905-4.658-19.563-2.329-1.397-5.124-3.726-6.521-7.453-1.863-5.124-5.124-11.179-4.193-19.097 0.466-2.329-6.987 5.124-11.179 1.863-18.166-12.576-36.332-27.016-58.224-39.127-11.645 0-20.029-4.192-24.221-9.316-3.726-4.658-0.932-10.713 4.658-11.179 3.261 0 6.987-0.932 9.782 0.932 0.466-1.863 2.329-4.192 4.657-4.192M157.904 16.215l0.932 0.466c4.658 0.932 6.987 7.453 12.11 5.124 0 3.261 0.466 6.521-0.466 8.85-1.397 3.726-5.59 3.726-8.85 3.726-31.208-1.863-49.374 11.179-68.471 22.358-5.124 3.261-10.713 5.59-14.906 9.782-20.029 18.632-41.921 35.866-47.045 70.335l-4.192 38.195c-0.466 4.192-5.124 8.384-4.192 13.508l3.26 22.824c-3.261-3.261-5.124 0.932-4.192 2.795 0.466 1.397 2.329 6.055 5.124 1.863 3.726 6.987 7.453 20.495 12.576 26.55 15.837 18.632 36.332 35.4 53.101 52.169 4.192-0.932 7.453-0.932 8.384-3.727 1.397 2.795-1.397 5.59-3.726 6.056 7.453 4.658 15.837 8.85 27.016 9.781 14.44 0.932 27.948 3.261 40.524 6.522 6.521-1.863 13.042-2.795 20.029-3.261 2.329 0 3.726-3.726 6.521-4.658l0.466-4.658c2.795 4.192 2.329-1.397 0.466-4.192 3.261 2.795 4.192 5.124 5.589 6.987 0-1.397 3.726-6.521 3.727-0.466l0.931-6.055c1.397-0.932 1.863 5.124 3.261 0.931 1.397-4.192 4.192-0.932 6.987-2.329-0.932 1.863-0.466 5.59 2.794 3.261l3.727-3.261c2.329 5.59 6.055 3.261 7.918 2.329 20.495-13.042 40.99-28.413 60.553-43.784l-0.466 6.055 2.329-7.453c2.329 2.329 4.192 0.466 5.124-0.931 2.795-4.658 6.521-9.316 12.577-13.508-7.453 20.029-16.303 35.866-27.482 48.908l-4.658 5.59c0 3.261-0.932 7.453-4.658 7.918-1.863 0.466-5.59-0.932-8.384 1.863-1.397 1.863 3.261 5.59-0.466 2.795-3.261-2.329-6.521 0-10.248 0.932-2.795 0.932 1.863 3.726 2.795 5.589 0.932 1.863 1.863 3.726 1.398 6.056l-5.124-5.59c-6.055 3.261-9.782 9.316-14.906 13.974-2.329 1.863-1.397 5.124-1.397 7.918-3.261 0-6.987-0.932-8.85 0.932-1.397 1.863-0.932 4.658-0.932 7.453-4.658-0.466-5.124-7.453-9.315-6.056-4.192 0.932-8.85 1.397-12.577 3.727 2.795 5.59-4.658 2.329-3.726 3.26-6.987-4.192-13.042-7.453-20.495-4.658-15.837-5.124-35.4-2.795-49.84-0.931 0-2.329 0.466-4.658-0.466-5.124-0.932 2.329-3.726 1.397-3.26 1.397-8.85-6.055-17.7-9.782-27.016-14.905-8.384 0.932-16.303-3.261-18.632-5.59-6.521-6.055-13.974-2.795-20.029-4.192-13.042-3.261-17.7-16.769-19.098-26.084-0.932-4.658-4.658-6.521-6.055-6.056-6.055-19.563-15.371-37.263-22.824-55.429-1.863-4.658-1.397-9.316-1.397-14.44 2.329 0.932 4.658 0.466 4.192-2.794-2.329-15.371-7.918-27.016-13.974-38.195 3.261-15.837 3.726-34.469 11.179-48.443 6.521-12.576 18.632-19.098 27.016-29.811 2.795-3.726 2.795-8.85 5.59-12.11 9.316-9.316 18.632-19.098 28.879-27.482 4.658-3.726 10.247 0 17.234-1.397 2.329-8.384 11.645-15.837 20.495-13.508 3.726 0.932 11.179-8.85 13.508-9.782 3.726-1.397 1.863 3.726 1.863 6.987 8.85-6.987 20.961-10.713 32.14-14.906" fill="black" fill-rule="nonzero" stroke="none" stroke-width="1" stroke-linecap="butt" stroke-linejoin="miter" stroke-miterlimit="10" stroke-dasharray="" stroke-dashoffset="0" font-family="none" font-weight="none" font-size="none" text-anchor="none" style="mix-blend-mode: normal"></path></g><g transform="matrix(1,0,0,1,64,119.3103448275862)"><svg viewBox="0 0 192 121.37931034482759" height="121.37931034482759" width="192"><g><svg viewBox="0 0 192 121.37931034482759" height="121.37931034482759" width="192"><g><svg viewBox="0 0 192 121.37931034482759" height="121.37931034482759" width="192"><g id="SvgjsG4247"><svg viewBox="0 0 192 121.37931034482759" height="121.37931034482759" width="192" id="SvgjsSvg4246"><g><svg viewBox="0 0 192 121.37931034482759" height="121.37931034482759" width="192"><g transform="matrix(1,0,0,1,0,0)"><svg width="192" viewBox="0.7 -32.35 52.199999999999996 33" height="121.37931034482759" data-palette-color="url(#803f2797-1a21-4fe5-8a9c-6fbc467fab7f)"><path d="M9.8 0.65L9.8 0.65Q7.35 0.65 5.28-0.08 3.2-0.8 1.95-2.1 0.7-3.4 0.7-5.15L0.7-5.15Q0.7-6.3 1.25-7.18 1.8-8.05 2.75-8.05L2.75-8.05Q3.35-8.05 4-7.6L4-7.6Q5.25-6.5 7.23-5.68 9.2-4.85 11.45-4.85L11.45-4.85Q14.4-4.85 16.28-6.03 18.15-7.2 18.15-9.2L18.15-9.2Q18.15-11.1 16.4-11.95 14.65-12.8 11.55-13.55L11.55-13.55Q9.25-14.1 7.13-14.95 5-15.8 3.63-17.32 2.25-18.85 2.25-21.4L2.25-21.4Q2.25-23.35 3.1-25.28 3.95-27.2 5.6-28.8 7.25-30.4 9.6-31.38 11.95-32.35 14.9-32.35L14.9-32.35Q17.1-32.35 18.93-31.85 20.75-31.35 21.83-30.45 22.9-29.55 22.9-28.25L22.9-28.25Q22.9-27.25 22.35-26.5 21.8-25.75 21.05-25.33 20.3-24.9 19.75-24.9L19.75-24.9Q19.25-24.9 18.4-25.35L18.4-25.35Q17-26.1 15.28-26.53 13.55-26.95 12.25-26.95L12.25-26.95Q9.8-26.95 8.28-25.88 6.75-24.8 6.75-23.35L6.75-23.35Q6.75-21.75 8.68-20.68 10.6-19.6 15.6-18.4L15.6-18.4Q19-17.5 20.9-15.93 22.8-14.35 22.8-10.95L22.8-10.95Q22.8-7.9 21.18-5.25 19.55-2.6 16.63-0.98 13.7 0.65 9.8 0.65ZM29.3 0.55L29.3 0.55Q27.95 0.55 27.6-0.05 27.25-0.65 27.45-1.75L27.45-1.75Q28.2-5.45 28.75-9.8 29.3-14.15 29.3-18.55L29.3-18.55Q29.3-21.55 29.07-23.9 28.85-26.25 27.6-28.3L27.6-28.3Q27.4-28.6 27.27-28.88 27.15-29.15 27.15-29.35L27.15-29.35Q27.15-30 27.87-30.63 28.6-31.25 29.6-31.7 30.6-32.15 31.5-32.15L31.5-32.15Q32.7-32.15 33.22-31.35 33.75-30.55 33.85-29.38 33.95-28.2 33.95-27L33.95-27Q33.95-25.8 33.82-24.33 33.7-22.85 33.55-21.1L33.55-21.1Q33.3-18.8 33.05-16.07 32.8-13.35 32.8-10.4L32.8-10.4Q32.8-7.05 33.05-4.93 33.3-2.8 33.4-2.15L33.4-2.15Q33.55-1.3 32.9-0.7 32.25-0.1 31.25 0.23 30.25 0.55 29.3 0.55ZM48.35 0.45L48.35 0.45Q46.35 0.45 44.52-0.55 42.7-1.55 41.1-3.15 39.5-4.75 38.22-6.65 36.95-8.55 36.02-10.4 35.1-12.25 34.65-13.65L34.65-13.65Q34.2-15 34.2-16L34.2-16Q34.2-17.1 35-18.65L35-18.65Q35.65-19.85 36.9-21.55 38.15-23.25 39.77-25.1 41.4-26.95 43.17-28.55 44.95-30.15 46.75-31.15 48.55-32.15 50.1-32.15L50.1-32.15Q51.5-32.15 52.12-31.33 52.75-30.5 52.75-29.45L52.75-29.45Q52.75-28.6 52.4-27.65 52.05-26.7 51.45-26.05 50.85-25.4 50.05-25.4L50.05-25.4Q49.55-25.4 49.12-25.53 48.7-25.65 48.05-25.65L48.05-25.65Q47.4-25.65 46.52-25.4 45.65-25.15 44.6-24.45L44.6-24.45Q43.75-23.85 42.5-22.68 41.25-21.5 39.95-20 38.65-18.5 37.55-16.8L37.55-16.8Q38.25-15.1 39.45-13.38 40.65-11.65 41.95-10.15L41.95-10.15Q44.3-7.45 46.47-6.2 48.65-4.95 51.8-4.95L51.8-4.95Q52.45-4.95 52.67-4.65 52.9-4.35 52.9-3.7L52.9-3.7Q52.9-2.25 51.82-0.9 50.75 0.45 48.35 0.45Z" opacity="1" transform="matrix(1,0,0,1,0,0)" fill="white" class="wordmark-text-0" id="SvgjsPath4245"></path></svg></g></svg></g></svg></g></svg></g></svg></g></svg></g></svg></g><defs><mask></mask></defs></svg><rect width="320" height="360" fill="black" stroke="none" visibility="hidden"></rect></g></mask><linearGradient x1="0" x2="1" y1="0.548" y2="0.55" id="803f2797-1a21-4fe5-8a9c-6fbc467fab7f"><stop stop-color="#ff6cab" offset="0"></stop><stop stop-color="#7366ff" offset="1"></stop></linearGradient><rect width="320.00000000000006" height="360" fill="url(#803f2797-1a21-4fe5-8a9c-6fbc467fab7f)" mask="url(#eb0c3163-94a8-4a15-b859-9e114eb1765f)" data-fill-palette-color="primary"></rect><mask id="70300474-cd82-44bf-b3cc-ae21b7c1912d"><g id="SvgjsG4271"><svg viewBox="0 0 320 360" height="360" width="320"><g><svg></svg></g><g><svg viewBox="0 0 320 360" height="360" width="320"><g><path d="M20.961 227.22l3.726 4.658-1.863-6.056c-0.466-2.795-3.726 0.466-1.863 1.398M25.153 224.425c1.397 2.329 2.795 4.658 2.795 6.987 0 3.261 2.795 4.658 5.123 5.589-3.261-3.726-5.124-13.974-7.918-12.576M204.017 26.929c7.918 0 15.371-0.932 23.756 0.931 20.495 5.124 37.729 15.371 49.374 29.811l32.606 52.169c1.397 13.042 4.192 27.482 3.726 43.319 3.261 0 2.795-4.658 6.521-5.59-3.726 9.316-5.59 20.961-6.521 34.469-2.329-7.453 0-18.632 0.466-24.687-3.261 5.124-5.124 1.397-5.124-0.932 0.466-3.726-1.397-3.261-2.795-4.658-5.124-4.658-8.384-9.782-12.11-17.7 2.329-6.055 2.795-14.905-4.658-19.563-2.329-1.397-5.124-3.726-6.521-7.453-1.863-5.124-5.124-11.179-4.193-19.097 0.466-2.329-6.987 5.124-11.179 1.863-18.166-12.576-36.332-27.016-58.224-39.127-11.645 0-20.029-4.192-24.221-9.316-3.726-4.658-0.932-10.713 4.658-11.179 3.261 0 6.987-0.932 9.782 0.932 0.466-1.863 2.329-4.192 4.657-4.192M157.904 16.215l0.932 0.466c4.658 0.932 6.987 7.453 12.11 5.124 0 3.261 0.466 6.521-0.466 8.85-1.397 3.726-5.59 3.726-8.85 3.726-31.208-1.863-49.374 11.179-68.471 22.358-5.124 3.261-10.713 5.59-14.906 9.782-20.029 18.632-41.921 35.866-47.045 70.335l-4.192 38.195c-0.466 4.192-5.124 8.384-4.192 13.508l3.26 22.824c-3.261-3.261-5.124 0.932-4.192 2.795 0.466 1.397 2.329 6.055 5.124 1.863 3.726 6.987 7.453 20.495 12.576 26.55 15.837 18.632 36.332 35.4 53.101 52.169 4.192-0.932 7.453-0.932 8.384-3.727 1.397 2.795-1.397 5.59-3.726 6.056 7.453 4.658 15.837 8.85 27.016 9.781 14.44 0.932 27.948 3.261 40.524 6.522 6.521-1.863 13.042-2.795 20.029-3.261 2.329 0 3.726-3.726 6.521-4.658l0.466-4.658c2.795 4.192 2.329-1.397 0.466-4.192 3.261 2.795 4.192 5.124 5.589 6.987 0-1.397 3.726-6.521 3.727-0.466l0.931-6.055c1.397-0.932 1.863 5.124 3.261 0.931 1.397-4.192 4.192-0.932 6.987-2.329-0.932 1.863-0.466 5.59 2.794 3.261l3.727-3.261c2.329 5.59 6.055 3.261 7.918 2.329 20.495-13.042 40.99-28.413 60.553-43.784l-0.466 6.055 2.329-7.453c2.329 2.329 4.192 0.466 5.124-0.931 2.795-4.658 6.521-9.316 12.577-13.508-7.453 20.029-16.303 35.866-27.482 48.908l-4.658 5.59c0 3.261-0.932 7.453-4.658 7.918-1.863 0.466-5.59-0.932-8.384 1.863-1.397 1.863 3.261 5.59-0.466 2.795-3.261-2.329-6.521 0-10.248 0.932-2.795 0.932 1.863 3.726 2.795 5.589 0.932 1.863 1.863 3.726 1.398 6.056l-5.124-5.59c-6.055 3.261-9.782 9.316-14.906 13.974-2.329 1.863-1.397 5.124-1.397 7.918-3.261 0-6.987-0.932-8.85 0.932-1.397 1.863-0.932 4.658-0.932 7.453-4.658-0.466-5.124-7.453-9.315-6.056-4.192 0.932-8.85 1.397-12.577 3.727 2.795 5.59-4.658 2.329-3.726 3.26-6.987-4.192-13.042-7.453-20.495-4.658-15.837-5.124-35.4-2.795-49.84-0.931 0-2.329 0.466-4.658-0.466-5.124-0.932 2.329-3.726 1.397-3.26 1.397-8.85-6.055-17.7-9.782-27.016-14.905-8.384 0.932-16.303-3.261-18.632-5.59-6.521-6.055-13.974-2.795-20.029-4.192-13.042-3.261-17.7-16.769-19.098-26.084-0.932-4.658-4.658-6.521-6.055-6.056-6.055-19.563-15.371-37.263-22.824-55.429-1.863-4.658-1.397-9.316-1.397-14.44 2.329 0.932 4.658 0.466 4.192-2.794-2.329-15.371-7.918-27.016-13.974-38.195 3.261-15.837 3.726-34.469 11.179-48.443 6.521-12.576 18.632-19.098 27.016-29.811 2.795-3.726 2.795-8.85 5.59-12.11 9.316-9.316 18.632-19.098 28.879-27.482 4.658-3.726 10.247 0 17.234-1.397 2.329-8.384 11.645-15.837 20.495-13.508 3.726 0.932 11.179-8.85 13.508-9.782 3.726-1.397 1.863 3.726 1.863 6.987 8.85-6.987 20.961-10.713 32.14-14.906" fill="white" fill-rule="nonzero" stroke="none" stroke-width="1" stroke-linecap="butt" stroke-linejoin="miter" stroke-miterlimit="10" stroke-dasharray="" stroke-dashoffset="0" font-family="none" font-weight="none" font-size="none" text-anchor="none" style="mix-blend-mode: normal"></path></g><g transform="matrix(1,0,0,1,64,119.3103448275862)"><svg viewBox="0 0 192 121.37931034482759" height="121.37931034482759" width="192"><g><svg viewBox="0 0 192 121.37931034482759" height="121.37931034482759" width="192"><g><svg viewBox="0 0 192 121.37931034482759" height="121.37931034482759" width="192"><g id="SvgjsG4270"><svg viewBox="0 0 192 121.37931034482759" height="121.37931034482759" width="192" id="SvgjsSvg4269"><g><svg viewBox="0 0 192 121.37931034482759" height="121.37931034482759" width="192"><g transform="matrix(1,0,0,1,0,0)"><svg width="192" viewBox="0.7 -32.35 52.199999999999996 33" height="121.37931034482759" data-palette-color="url(#803f2797-1a21-4fe5-8a9c-6fbc467fab7f)"></svg></g></svg></g></svg></g></svg></g></svg></g></svg></g></svg></g><defs><mask></mask></defs><mask><g id="SvgjsG4268"><svg viewBox="0 0 320 360" height="360" width="320"><g><svg></svg></g><g><svg viewBox="0 0 320 360" height="360" width="320"><g><path d="M20.961 227.22l3.726 4.658-1.863-6.056c-0.466-2.795-3.726 0.466-1.863 1.398M25.153 224.425c1.397 2.329 2.795 4.658 2.795 6.987 0 3.261 2.795 4.658 5.123 5.589-3.261-3.726-5.124-13.974-7.918-12.576M204.017 26.929c7.918 0 15.371-0.932 23.756 0.931 20.495 5.124 37.729 15.371 49.374 29.811l32.606 52.169c1.397 13.042 4.192 27.482 3.726 43.319 3.261 0 2.795-4.658 6.521-5.59-3.726 9.316-5.59 20.961-6.521 34.469-2.329-7.453 0-18.632 0.466-24.687-3.261 5.124-5.124 1.397-5.124-0.932 0.466-3.726-1.397-3.261-2.795-4.658-5.124-4.658-8.384-9.782-12.11-17.7 2.329-6.055 2.795-14.905-4.658-19.563-2.329-1.397-5.124-3.726-6.521-7.453-1.863-5.124-5.124-11.179-4.193-19.097 0.466-2.329-6.987 5.124-11.179 1.863-18.166-12.576-36.332-27.016-58.224-39.127-11.645 0-20.029-4.192-24.221-9.316-3.726-4.658-0.932-10.713 4.658-11.179 3.261 0 6.987-0.932 9.782 0.932 0.466-1.863 2.329-4.192 4.657-4.192M157.904 16.215l0.932 0.466c4.658 0.932 6.987 7.453 12.11 5.124 0 3.261 0.466 6.521-0.466 8.85-1.397 3.726-5.59 3.726-8.85 3.726-31.208-1.863-49.374 11.179-68.471 22.358-5.124 3.261-10.713 5.59-14.906 9.782-20.029 18.632-41.921 35.866-47.045 70.335l-4.192 38.195c-0.466 4.192-5.124 8.384-4.192 13.508l3.26 22.824c-3.261-3.261-5.124 0.932-4.192 2.795 0.466 1.397 2.329 6.055 5.124 1.863 3.726 6.987 7.453 20.495 12.576 26.55 15.837 18.632 36.332 35.4 53.101 52.169 4.192-0.932 7.453-0.932 8.384-3.727 1.397 2.795-1.397 5.59-3.726 6.056 7.453 4.658 15.837 8.85 27.016 9.781 14.44 0.932 27.948 3.261 40.524 6.522 6.521-1.863 13.042-2.795 20.029-3.261 2.329 0 3.726-3.726 6.521-4.658l0.466-4.658c2.795 4.192 2.329-1.397 0.466-4.192 3.261 2.795 4.192 5.124 5.589 6.987 0-1.397 3.726-6.521 3.727-0.466l0.931-6.055c1.397-0.932 1.863 5.124 3.261 0.931 1.397-4.192 4.192-0.932 6.987-2.329-0.932 1.863-0.466 5.59 2.794 3.261l3.727-3.261c2.329 5.59 6.055 3.261 7.918 2.329 20.495-13.042 40.99-28.413 60.553-43.784l-0.466 6.055 2.329-7.453c2.329 2.329 4.192 0.466 5.124-0.931 2.795-4.658 6.521-9.316 12.577-13.508-7.453 20.029-16.303 35.866-27.482 48.908l-4.658 5.59c0 3.261-0.932 7.453-4.658 7.918-1.863 0.466-5.59-0.932-8.384 1.863-1.397 1.863 3.261 5.59-0.466 2.795-3.261-2.329-6.521 0-10.248 0.932-2.795 0.932 1.863 3.726 2.795 5.589 0.932 1.863 1.863 3.726 1.398 6.056l-5.124-5.59c-6.055 3.261-9.782 9.316-14.906 13.974-2.329 1.863-1.397 5.124-1.397 7.918-3.261 0-6.987-0.932-8.85 0.932-1.397 1.863-0.932 4.658-0.932 7.453-4.658-0.466-5.124-7.453-9.315-6.056-4.192 0.932-8.85 1.397-12.577 3.727 2.795 5.59-4.658 2.329-3.726 3.26-6.987-4.192-13.042-7.453-20.495-4.658-15.837-5.124-35.4-2.795-49.84-0.931 0-2.329 0.466-4.658-0.466-5.124-0.932 2.329-3.726 1.397-3.26 1.397-8.85-6.055-17.7-9.782-27.016-14.905-8.384 0.932-16.303-3.261-18.632-5.59-6.521-6.055-13.974-2.795-20.029-4.192-13.042-3.261-17.7-16.769-19.098-26.084-0.932-4.658-4.658-6.521-6.055-6.056-6.055-19.563-15.371-37.263-22.824-55.429-1.863-4.658-1.397-9.316-1.397-14.44 2.329 0.932 4.658 0.466 4.192-2.794-2.329-15.371-7.918-27.016-13.974-38.195 3.261-15.837 3.726-34.469 11.179-48.443 6.521-12.576 18.632-19.098 27.016-29.811 2.795-3.726 2.795-8.85 5.59-12.11 9.316-9.316 18.632-19.098 28.879-27.482 4.658-3.726 10.247 0 17.234-1.397 2.329-8.384 11.645-15.837 20.495-13.508 3.726 0.932 11.179-8.85 13.508-9.782 3.726-1.397 1.863 3.726 1.863 6.987 8.85-6.987 20.961-10.713 32.14-14.906" fill="black" fill-rule="nonzero" stroke="none" stroke-width="1" stroke-linecap="butt" stroke-linejoin="miter" stroke-miterlimit="10" stroke-dasharray="" stroke-dashoffset="0" font-family="none" font-weight="none" font-size="none" text-anchor="none" style="mix-blend-mode: normal"></path></g><g transform="matrix(1,0,0,1,64,119.3103448275862)"><svg viewBox="0 0 192 121.37931034482759" height="121.37931034482759" width="192"><g><svg viewBox="0 0 192 121.37931034482759" height="121.37931034482759" width="192"><g><svg viewBox="0 0 192 121.37931034482759" height="121.37931034482759" width="192"><g id="SvgjsG4267"><svg viewBox="0 0 192 121.37931034482759" height="121.37931034482759" width="192" id="SvgjsSvg4266"><g><svg viewBox="0 0 192 121.37931034482759" height="121.37931034482759" width="192"><g transform="matrix(1,0,0,1,0,0)"><svg width="192" viewBox="0.7 -32.35 52.199999999999996 33" height="121.37931034482759" data-palette-color="url(#803f2797-1a21-4fe5-8a9c-6fbc467fab7f)"><path d="M9.8 0.65L9.8 0.65Q7.35 0.65 5.28-0.08 3.2-0.8 1.95-2.1 0.7-3.4 0.7-5.15L0.7-5.15Q0.7-6.3 1.25-7.18 1.8-8.05 2.75-8.05L2.75-8.05Q3.35-8.05 4-7.6L4-7.6Q5.25-6.5 7.23-5.68 9.2-4.85 11.45-4.85L11.45-4.85Q14.4-4.85 16.28-6.03 18.15-7.2 18.15-9.2L18.15-9.2Q18.15-11.1 16.4-11.95 14.65-12.8 11.55-13.55L11.55-13.55Q9.25-14.1 7.13-14.95 5-15.8 3.63-17.32 2.25-18.85 2.25-21.4L2.25-21.4Q2.25-23.35 3.1-25.28 3.95-27.2 5.6-28.8 7.25-30.4 9.6-31.38 11.95-32.35 14.9-32.35L14.9-32.35Q17.1-32.35 18.93-31.85 20.75-31.35 21.83-30.45 22.9-29.55 22.9-28.25L22.9-28.25Q22.9-27.25 22.35-26.5 21.8-25.75 21.05-25.33 20.3-24.9 19.75-24.9L19.75-24.9Q19.25-24.9 18.4-25.35L18.4-25.35Q17-26.1 15.28-26.53 13.55-26.95 12.25-26.95L12.25-26.95Q9.8-26.95 8.28-25.88 6.75-24.8 6.75-23.35L6.75-23.35Q6.75-21.75 8.68-20.68 10.6-19.6 15.6-18.4L15.6-18.4Q19-17.5 20.9-15.93 22.8-14.35 22.8-10.95L22.8-10.95Q22.8-7.9 21.18-5.25 19.55-2.6 16.63-0.98 13.7 0.65 9.8 0.65ZM29.3 0.55L29.3 0.55Q27.95 0.55 27.6-0.05 27.25-0.65 27.45-1.75L27.45-1.75Q28.2-5.45 28.75-9.8 29.3-14.15 29.3-18.55L29.3-18.55Q29.3-21.55 29.07-23.9 28.85-26.25 27.6-28.3L27.6-28.3Q27.4-28.6 27.27-28.88 27.15-29.15 27.15-29.35L27.15-29.35Q27.15-30 27.87-30.63 28.6-31.25 29.6-31.7 30.6-32.15 31.5-32.15L31.5-32.15Q32.7-32.15 33.22-31.35 33.75-30.55 33.85-29.38 33.95-28.2 33.95-27L33.95-27Q33.95-25.8 33.82-24.33 33.7-22.85 33.55-21.1L33.55-21.1Q33.3-18.8 33.05-16.07 32.8-13.35 32.8-10.4L32.8-10.4Q32.8-7.05 33.05-4.93 33.3-2.8 33.4-2.15L33.4-2.15Q33.55-1.3 32.9-0.7 32.25-0.1 31.25 0.23 30.25 0.55 29.3 0.55ZM48.35 0.45L48.35 0.45Q46.35 0.45 44.52-0.55 42.7-1.55 41.1-3.15 39.5-4.75 38.22-6.65 36.95-8.55 36.02-10.4 35.1-12.25 34.65-13.65L34.65-13.65Q34.2-15 34.2-16L34.2-16Q34.2-17.1 35-18.65L35-18.65Q35.65-19.85 36.9-21.55 38.15-23.25 39.77-25.1 41.4-26.95 43.17-28.55 44.95-30.15 46.75-31.15 48.55-32.15 50.1-32.15L50.1-32.15Q51.5-32.15 52.12-31.33 52.75-30.5 52.75-29.45L52.75-29.45Q52.75-28.6 52.4-27.65 52.05-26.7 51.45-26.05 50.85-25.4 50.05-25.4L50.05-25.4Q49.55-25.4 49.12-25.53 48.7-25.65 48.05-25.65L48.05-25.65Q47.4-25.65 46.52-25.4 45.65-25.15 44.6-24.45L44.6-24.45Q43.75-23.85 42.5-22.68 41.25-21.5 39.95-20 38.65-18.5 37.55-16.8L37.55-16.8Q38.25-15.1 39.45-13.38 40.65-11.65 41.95-10.15L41.95-10.15Q44.3-7.45 46.47-6.2 48.65-4.95 51.8-4.95L51.8-4.95Q52.45-4.95 52.67-4.65 52.9-4.35 52.9-3.7L52.9-3.7Q52.9-2.25 51.82-0.9 50.75 0.45 48.35 0.45Z" opacity="1" transform="matrix(1,0,0,1,0,0)" fill="black" class="wordmark-text-0" id="SvgjsPath4265"></path></svg></g></svg></g></svg></g></svg></g></svg></g></svg></g></svg></g><defs><mask></mask></defs></svg><rect width="320" height="360" fill="black" stroke="none" visibility="hidden"></rect></g></mask></svg><rect width="320" height="360" fill="black" stroke="none" visibility="hidden"></rect></g></mask><linearGradient x1="0" x2="1" y1="0.548" y2="0.55" id="b0eb8c14-f755-46bb-8077-712949328b39"><stop stop-color="#ff6cab" offset="0"></stop><stop stop-color="#7366ff" offset="1"></stop></linearGradient></svg><rect width="320" height="360" fill="none" stroke="none" visibility="hidden"></rect></g></svg></g></svg>
